<svg preserveAspectRatio="xMidYMid meet" data-bbox="67.893 23.943 128.667 52.367" viewBox="67.893 23.943 128.667 52.367" height="104" width="258" xmlns="http://www.w3.org/2000/svg" data-type="color" role="presentation" aria-hidden="true"><defs><style>#comp-jlkmu9oi svg [data-color="1"] {fill: #B0B0B0;}</style></defs>
    <g>
        <path d="M81.837 41.131h7.041c.218 0 .327.125.327.373l-2.938 23.828c-.031.28.016.498.141.653.124.156.326.233.605.233h6.809a.903.903 0 0 0 .63-.233c.17-.155.271-.373.303-.653l2.938-23.828c.062-.248.202-.373.42-.373h7.274c.56 0 .886-.295.979-.886l.699-5.782c.03-.28-.023-.497-.163-.653-.14-.155-.335-.233-.583-.233H82.723a.9.9 0 0 0-.629.233c-.171.156-.272.373-.304.653l-.746 5.782c-.063.591.202.886.793.886z" fill="#B3B3B3" data-color="1"></path>
        <path d="M106.318 59.597c0 2.208.575 3.925 1.726 5.153 1.149 1.228 2.751 1.842 4.803 1.842 2.549 0 4.523-.839 5.922-2.518.124-.124.226-.178.304-.163.077.016.116.086.116.21v.093l-.14 1.119c-.062.591.187.886.746.886h6.808a.9.9 0 0 0 .63-.233c.171-.155.271-.373.303-.653l2.798-22.476c.062-.59-.202-.886-.792-.886h-6.762c-.56 0-.886.296-.979.886l-1.632 13.523a.47.47 0 0 0-.047.21.471.471 0 0 1-.093.256c-.218.684-.567 1.229-1.05 1.632a2.566 2.566 0 0 1-1.702.606c-.684 0-1.22-.233-1.608-.699s-.583-1.088-.583-1.865c0-.249.016-.435.047-.56l1.632-13.103c.062-.59-.202-.886-.793-.886h-6.761c-.56 0-.887.296-.979.886l-1.818 15.015c-.064.404-.096.979-.096 1.725z" fill="#B3B3B3" data-color="1"></path>
        <path d="M133.597 66.219h6.809a.899.899 0 0 0 .629-.233c.171-.155.272-.373.304-.653l1.632-13.103c.124-.933.45-1.686.979-2.261a2.553 2.553 0 0 1 1.958-.863c.684 0 1.22.233 1.609.699.388.466.582 1.089.582 1.865 0 .249-.016.436-.046.56l-1.586 13.103c-.031.28.016.498.14.653.124.156.327.233.606.233h6.809a.899.899 0 0 0 .629-.233c.171-.155.272-.373.304-.653l1.865-15.015c.062-.683.093-1.166.093-1.446 0-2.269-.652-4.049-1.958-5.339s-3.001-1.935-5.083-1.935c-2.332 0-4.182.886-5.549 2.658-.094.125-.18.171-.257.14-.078-.031-.116-.108-.116-.233v-.093l.14-1.212c.03-.28-.016-.497-.14-.653-.125-.155-.327-.233-.606-.233h-6.762c-.56 0-.886.296-.979.886l-2.751 22.476c-.031.28.016.498.14.653.122.154.325.232.605.232z" fill="#B3B3B3" data-color="1"></path>
        <path d="M165.072 65.356c1.647.824 3.591 1.236 5.829 1.236 1.772 0 3.466-.249 5.083-.746 1.616-.497 3.015-1.259 4.196-2.285.28-.249.42-.497.42-.746 0-.124-.047-.28-.14-.466l-2.564-4.383c-.156-.249-.327-.373-.514-.373s-.404.093-.652.28c-.56.404-1.244.723-2.052.956a9.217 9.217 0 0 1-2.564.35c-2.052 0-3.28-.622-3.685-1.865l-.14-.606c0-.28.124-.42.373-.42h13.43c.56 0 .886-.295.979-.886.03-.249.047-.622.047-1.119s-.017-.87-.047-1.119c-.156-3.574-1.072-6.396-2.751-8.463-1.679-2.067-4.073-3.101-7.182-3.101-2.674 0-5.129.77-7.367 2.308s-3.855 3.567-4.85 6.085a18.007 18.007 0 0 0-.979 3.917c-.094.684-.14 1.368-.14 2.052 0 2.238.481 4.197 1.445 5.875.903 1.522 2.178 2.696 3.825 3.519zm3.964-14.013l.187-.373c.653-1.243 1.586-1.865 2.798-1.865 1.274 0 2.099.622 2.472 1.865 0 .093.016.179.047.257.03.078.046.163.046.256 0 .187-.124.28-.373.28h-4.896c-.218 0-.327-.093-.327-.28l.046-.14z" fill="#B3B3B3" data-color="1"></path>
        <path d="M195.06 23.943H69.393a1.5 1.5 0 0 0-1.5 1.5V74.81a1.5 1.5 0 0 0 1.5 1.5H195.06a1.5 1.5 0 0 0 1.5-1.5V25.443a1.5 1.5 0 0 0-1.5-1.5zm-1.5 49.366H70.893V26.943H193.56v46.366z" fill="#B3B3B3" data-color="1"></path>
    </g>
</svg>