<svg preserveAspectRatio="xMidYMid meet" data-bbox="18.444 84.485 163.112 27.031" viewBox="18.444 84.485 163.112 27.031" height="200" width="200" xmlns="http://www.w3.org/2000/svg" data-type="color" role="presentation" aria-hidden="true"><defs><style>#comp-jlkmuuq3 svg [data-color="1"] {fill: #B0B0B0;}</style></defs>
    <g>
        <path d="M34.206 84.485H18.939a.504.504 0 0 0-.495.495v25.66c0 .267.228.495.495.495h15.267a.503.503 0 0 0 .495-.495v-.609a.504.504 0 0 0-.495-.495H20.272v-11.27h7.816a.503.503 0 0 0 .495-.495v-.647a.503.503 0 0 0-.495-.495h-7.816V86.122h13.934a.504.504 0 0 0 .495-.495v-.647a.503.503 0 0 0-.495-.495z" fill="#B3B3B3" data-color="1"></path>
        <path d="M49.204 95.525c-3.16 0-5.101 1.066-5.215 1.142-.19.076-.343.229-.228.571l.19.457c.076.266.267.419.571.305.342-.114 2.055-1.028 4.568-1.028 3.007 0 3.35 1.675 3.35 5.025-.419-.152-2.094-.685-3.845-.685-3.998 0-6.396 2.208-6.396 5.14 0 3.122 2.17 5.063 4.988 5.063 2.437 0 4.302-1.256 5.292-2.17l.152 1.371c.076.267.191.419.457.419h.458a.504.504 0 0 0 .495-.495v-8.452c-.002-3.883-.193-6.663-4.837-6.663zm3.236 12.145c-.723.952-2.741 2.36-5.063 2.36-2.094 0-3.617-1.409-3.617-3.617 0-2.246 1.942-3.731 4.835-3.731 1.827 0 3.35.571 3.845.8v4.188z" fill="#B3B3B3" data-color="1"></path>
        <path d="M67.78 102.492c-2.246-.8-3.617-1.523-3.617-3.046 0-1.028.876-2.437 3.274-2.437 1.637 0 3.16.838 3.502 1.066a.512.512 0 0 0 .724-.19l.228-.419a.533.533 0 0 0-.153-.723c-.762-.495-2.284-1.218-4.302-1.218-3.503 0-4.988 2.284-4.988 3.959 0 2.361 1.98 3.541 4.683 4.492 2.551.952 4.264 1.675 4.264 3.426 0 1.485-1.485 2.703-3.655 2.703-2.133 0-3.693-1.18-4.074-1.485-.267-.228-.571-.152-.685.038l-.38.609c-.115.19 0 .419.152.533.838.647 2.398 1.713 4.988 1.713 3.045 0 5.405-1.942 5.405-4.226.002-2.777-2.51-3.729-5.366-4.795z" fill="#B3B3B3" data-color="1"></path>
        <path d="M120.465 84.485h-15.267a.504.504 0 0 0-.495.495v11.9a12.963 12.963 0 0 0-2.483-.226c-3.229 0-4.856.921-6.429 1.811-1.445.818-2.81 1.591-5.592 1.591-2.779 0-4.144-.773-5.588-1.59a31.55 31.55 0 0 0-.956-.523v-6.224a.503.503 0 0 0-.495-.495l-.648.038a.48.48 0 0 0-.495.495v5.469c-1.006-.341-2.219-.571-3.832-.571a.85.85 0 1 0 0 1.7c1.689 0 2.853.287 3.832.695v8.164c0 2.437.267 4.302 3.426 4.302 2.17 0 3.846-.952 4.416-1.409.228-.152.267-.381.115-.647l-.267-.457c-.115-.19-.267-.343-.61-.152-.495.305-2.132 1.028-3.464 1.028-1.79 0-1.98-.99-1.98-2.779v-7.22l.118.066c1.572.89 3.198 1.811 6.426 1.811 3.229 0 4.857-.921 6.43-1.811 1.445-.818 2.81-1.591 5.591-1.591.985 0 1.787.1 2.483.262v12.023c0 .267.228.495.495.495h.686c.38 0 .609-.228.609-.495l.018-11.386c.451.215.875.449 1.302.691 1.574.89 3.201 1.811 6.43 1.811a.85.85 0 1 0 0-1.7c-2.782 0-4.146-.773-5.592-1.591-.662-.374-1.341-.75-2.137-1.064l.018-11.278h13.934a.504.504 0 0 0 .495-.495v-.648a.503.503 0 0 0-.494-.495z" fill="#B3B3B3" data-color="1"></path>
        <path d="M129.904 84.485h-.685a.504.504 0 0 0-.495.495v25.66c0 .267.153.495.419.495h.762c.343 0 .495-.19.495-.495V84.98a.506.506 0 0 0-.496-.495z" fill="#B3B3B3" data-color="1"></path>
        <path d="M146.502 95.525c-4.302 0-7.652 3.617-7.652 7.957 0 4.454 3.35 8.033 7.652 8.033 4.264 0 7.653-3.579 7.653-8.033 0-4.34-3.388-7.957-7.653-7.957zm0 14.429c-3.388 0-6.015-2.855-6.015-6.472 0-3.503 2.627-6.358 6.015-6.358 3.351 0 5.978 2.855 5.978 6.358 0 3.617-2.627 6.472-5.978 6.472z" fill="#B3B3B3" data-color="1"></path>
        <path d="M181.259 95.906h-.838c-.19 0-.419.076-.495.343l-3.578 11.992h-.038l-4.531-12.373a.478.478 0 0 0-.457-.343h-.152c-.228 0-.38.076-.457.343l-4.531 12.373h-.037l-3.579-11.992c-.076-.266-.304-.343-.495-.343h-.837c-.343 0-.343.267-.228.609l4.568 14.657c.076.267.228.343.457.343h.152a.48.48 0 0 0 .458-.343l4.568-12.83h.038l4.607 12.83a.478.478 0 0 0 .457.343h.152c.228 0 .381-.076.457-.343l4.569-14.657c.112-.342.112-.609-.23-.609z" fill="#B3B3B3" data-color="1"></path>
    </g>
</svg>