<svg preserveAspectRatio="xMidYMid meet" data-bbox="23.71 81.079 152.58 29.842" viewBox="23.71 81.079 152.58 29.842" height="200" width="200" xmlns="http://www.w3.org/2000/svg" data-type="color" role="presentation" aria-hidden="true"><defs><style>#comp-jlkmvd5l1 svg [data-color="1"] {fill: #B0B0B0;}</style></defs>
    <g>
        <path d="M45.288 96.249c.816-1.186 1.225-2.569 1.225-4.151 0-1.913-.389-3.449-1.167-4.61-.779-1.16-2.008-2.015-3.692-2.563-1.683-.548-3.903-.823-6.657-.823-3.545 0-7.231.281-11.057.842l-.23 3.136 1.99 1.109c.433.179.701.377.803.593.102.217.153.657.153 1.32v14.577l-2.793.765.191 3.903h11.823l.153-3.29-1.646-.957c-.358-.204-.58-.388-.669-.555-.09-.166-.134-.555-.134-1.167v-4.285l1.684.038 5.662 10.215h6.963l.038-1.492-6.122-9.871c1.505-.636 2.666-1.548 3.482-2.734zm-6.274-.823c-.638.255-1.632.383-2.984.383-.918 0-1.709-.077-2.373-.229v-6.85c.74-.076 1.467-.115 2.182-.115 1.275 0 2.187.268 2.735.803.549.536.823 1.441.823 2.716-.001 1.278-.129 2.374-.383 3.292z" fill="#B3B3B3" data-color="1"></path>
        <path d="M59.636 89.955c-2.041 0-3.813.434-5.317 1.301-1.506.867-2.66 2.117-3.463 3.75-.803 1.633-1.205 3.546-1.205 5.739 0 3.418.797 5.956 2.391 7.614 1.594 1.658 4.011 2.487 7.25 2.487s5.758-.937 7.557-2.812c1.798-1.875 2.697-4.482 2.697-7.824-.001-6.837-3.304-10.255-9.91-10.255zm3.214 13.582c-.102.918-.229 1.671-.382 2.257a6.23 6.23 0 0 1-1.225.44c-.383.09-.83.134-1.339.134-1.25 0-2.213-.574-2.889-1.722-.676-1.148-1.014-2.793-1.014-4.936 0-1.096.051-2.072.153-2.927.102-.854.242-1.473.421-1.856a9.965 9.965 0 0 1 2.564-.344c1.275 0 2.238.536 2.888 1.607.65 1.071.976 2.64.976 4.706 0 .843-.051 1.723-.153 2.641z" fill="#B3B3B3" data-color="1"></path>
        <path d="M86.685 105.508c-1.021.217-1.888.325-2.602.325-1.506 0-2.627-.504-3.367-1.511-.74-1.007-1.11-2.557-1.11-4.649 0-2.041.293-3.622.881-4.744a12.4 12.4 0 0 1 1.759-.115c.791 0 1.505.064 2.142.191l2.373 3.023 2.564-.229c.204-1.02.395-2.136.573-3.348.178-1.211.293-2.187.345-2.927-2.627-1.046-5.088-1.569-7.384-1.569-3.036 0-5.427.931-7.174 2.793-1.748 1.862-2.621 4.464-2.621 7.805 0 3.214.816 5.733 2.448 7.556 1.632 1.824 3.928 2.736 6.888 2.736 1.504 0 3.015-.229 4.534-.689 1.517-.459 2.786-1.046 3.807-1.76l-.919-3.826a21.122 21.122 0 0 1-3.137.938z" fill="#B3B3B3" data-color="1"></path>
        <path d="M114.615 93.054a14.626 14.626 0 0 0-.459-2.716h-8.493l-.421 2.104 1.072 1.339a.416.416 0 0 1 .115.306.588.588 0 0 1-.191.421l-4.248 4.132V83.068a9.43 9.43 0 0 0-.497-1.989c-1.353.051-3.712.383-7.079.995l-1.185.191-.115 2.908 1.684.88c.331.204.536.389.612.555.076.166.115.53.115 1.09v18.327l-2.373.689.192 3.635h11.095l.153-2.87-1.875-1.071c-.331-.204-.535-.395-.611-.574-.077-.178-.115-.536-.115-1.071V100.4l6.926 9.948h6.733v-1.683l-7.384-10.177 6.349-5.434z" fill="#B3B3B3" data-color="1"></path>
        <path d="M142.564 104.819c-1.365.268-2.493.402-3.386.402-2.245-.051-3.884-.759-4.917-2.123-1.033-1.364-1.55-3.463-1.55-6.294 0-1.326.127-2.64.383-3.941.255-1.301.586-2.346.994-3.137a15.261 15.261 0 0 1 2.908-.268c1.352 0 2.589.166 3.712.497l2.64 3.864 2.908-.191c.51-2.78.88-5.318 1.109-7.614-3.162-1.352-6.236-2.028-9.22-2.028-2.627 0-4.897.53-6.81 1.588-1.913 1.059-3.374 2.589-4.381 4.591-1.008 2.003-1.512 4.381-1.512 7.136 0 4.336 1.046 7.69 3.138 10.062 2.092 2.372 5.075 3.558 8.953 3.558 1.734 0 3.539-.274 5.414-.822 1.874-.548 3.475-1.256 4.801-2.124l-1.186-4.209a32.125 32.125 0 0 1-3.998 1.053z" fill="#B3B3B3" data-color="1"></path>
        <path d="M166.916 96.536l8.762-9.374-.459-2.602h-8.876l-.421 2.525 1.11 1.339a.563.563 0 0 1 .115.344.568.568 0 0 1-.153.421l-6.696 7.231v-7.193l2.831-.765-.191-3.903H151l-.115 3.635 1.607.918c.408.179.656.377.746.593.089.217.134.657.134 1.32v14.654l-2.41.65.191 4.017h11.86l.153-3.29-2.028-1.148c-.382-.204-.618-.408-.707-.612-.09-.204-.134-.586-.134-1.148V98.83l8.685 11.516h7.308v-1.722l-9.374-12.088z" fill="#B3B3B3" data-color="1"></path>
        <path fill="#B3B3B3" d="M142.448 98.041a2.826 2.826 0 1 1-5.652 0 2.826 2.826 0 0 1 5.652 0z" data-color="1"></path>
    </g>
</svg>