<svg preserveAspectRatio="xMidYMid meet" data-bbox="17.733 82.333 164.534 37.334" viewBox="17.733 82.333 164.534 37.334" height="200" width="200" xmlns="http://www.w3.org/2000/svg" data-type="color" role="presentation" aria-hidden="true"><defs><style>#comp-jlkmvd5k svg [data-color="1"] {fill: #B0B0B0;}</style></defs>
    <g>
        <path fill="#B3B3B3" d="M24.974 98.653h-2.029V84.659h2.029v-2.326h-6.867v2.326h2.016v13.994h-2.016v2.326h6.867v-2.326z" data-color="1"></path>
        <path d="M34.044 98.703h-2.24v-6.917c1.419-1.122 2.698-1.683 3.836-1.683.537 0 .922.177 1.157.532.235.355.352.94.352 1.757v8.587h4.739v-2.277H39.71v-6.471c0-1.518-.278-2.635-.835-3.353-.556-.718-1.417-1.076-2.58-1.076-1.403 0-2.9.582-4.492 1.745v-1.571H26.99v2.289h2.289v8.438H26.99v2.277h7.053v-2.277z" fill="#B3B3B3" data-color="1"></path>
        <path d="M46.319 100.274c.396.264.888.485 1.479.662.59.177 1.19.266 1.8.266 1.535 0 2.765-.363 3.693-1.089s1.392-1.687 1.392-2.883c0-2.046-1.283-3.304-3.848-3.774l-1.72-.334c-1.139-.181-1.871-.392-2.196-.631-.326-.239-.489-.569-.489-.99 0-.47.214-.854.643-1.151.428-.297.981-.446 1.658-.446 1.287 0 2.302.532 3.044 1.596v.792h2.227v-4.318h-2.227v.557c-.85-.487-1.897-.73-3.143-.73-.742 0-1.465.144-2.165.433a4.168 4.168 0 0 0-1.726 1.293c-.45.573-.674 1.264-.674 2.073 0 .998.305 1.819.916 2.462.61.643 1.571 1.097 2.883 1.361l1.324.285c1.147.223 1.91.439 2.289.65.379.21.569.526.569.947 0 .577-.24 1.013-.718 1.305-.478.293-1.134.439-1.967.439-.759 0-1.425-.19-1.998-.569-.573-.379-.921-.883-1.045-1.509v-.445h-2.277v4.454h2.277v-.706z" fill="#B3B3B3" data-color="1"></path>
        <path d="M58.741 97.614c0 1.311.235 2.238.705 2.778s1.241.811 2.314.811c.487 0 1.126-.116 1.918-.346v-2.314a4.134 4.134 0 0 1-1.361.235c-.371 0-.633-.105-.786-.316-.153-.21-.229-.67-.229-1.38v-6.817h2.376v-2.289h-2.376V83.67l-2.561 2.338v1.967h-1.694v2.289h1.694v7.35z" fill="#B3B3B3" data-color="1"></path>
        <path d="M73.565 98.703h-2.833v-2.945c0-1.386.109-2.446.328-3.18a2.66 2.66 0 0 1 1.342-1.645c.677-.363 1.708-.544 3.093-.544h.556v-2.586h-.581c-1.435 0-2.538.229-3.309.687-.772.458-1.417 1.268-1.936 2.431v-2.945h-4.641v2.289h2.611v8.438h-2.611v2.277h7.981v-2.277z" fill="#B3B3B3" data-color="1"></path>
        <path d="M79.727 96.5c0 1.683.291 2.887.873 3.613.582.726 1.482 1.089 2.704 1.089 1.353 0 2.779-.573 4.281-1.72v1.497h4.789v-2.277h-2.227V87.975h-4.862v2.289h2.301v7.04c-1.336 1.114-2.577 1.67-3.724 1.67-.561 0-.963-.157-1.207-.47-.243-.313-.365-.804-.365-1.472v-9.057h-4.38v2.289h1.818V96.5z" fill="#B3B3B3" data-color="1"></path>
        <path d="M101.244 98.703h-2.289v-6.941c1.526-1.122 2.759-1.683 3.699-1.683.577 0 .992.182 1.243.545.252.363.377.961.377 1.794v8.562h4.764v-2.277h-2.202v-6.941c.693-.561 1.353-.982 1.98-1.262s1.176-.421 1.646-.421c.528 0 .913.124 1.156.371s.394.549.452.903c.057.355.087.816.087 1.386v8.24h4.813v-2.277h-2.277v-7.127c0-1.278-.312-2.227-.934-2.846-.624-.619-1.459-.928-2.506-.928-1.476 0-3.048.676-4.714 2.029-.561-1.353-1.592-2.029-3.093-2.029-1.469 0-2.966.606-4.492 1.819v-1.646h-4.739v2.289h2.191v8.438h-2.339v2.277h7.176v-2.275z" fill="#B3B3B3" data-color="1"></path>
        <path d="M122.329 100.484c1.089.586 2.334.879 3.737.879 1.353 0 2.604-.283 3.755-.848a6.855 6.855 0 0 0 2.79-2.506l-2.252-1.015c-.495.734-1.11 1.279-1.843 1.633a5.418 5.418 0 0 1-2.388.532c-1.172 0-2.162-.361-2.97-1.083-.809-.722-1.291-1.705-1.448-2.951h10.9c-.049-1.534-.367-2.864-.953-3.99-.585-1.126-1.388-1.992-2.406-2.598-1.019-.606-2.213-.909-3.582-.909-1.254 0-2.4.295-3.439.885a6.461 6.461 0 0 0-2.457 2.456c-.598 1.048-.897 2.223-.897 3.526 0 1.312.304 2.491.91 3.539a6.349 6.349 0 0 0 2.543 2.45zm.854-9.756a3.694 3.694 0 0 1 2.537-.971c1.014 0 1.909.324 2.684.971.775.648 1.283 1.503 1.522 2.567h-8.142c.207-1.063.673-1.919 1.399-2.567z" fill="#B3B3B3" data-color="1"></path>
        <path d="M141.818 98.703h-2.24v-6.917c1.419-1.122 2.698-1.683 3.836-1.683.537 0 .922.177 1.157.532.235.355.352.94.352 1.757v8.587h4.739v-2.277h-2.178v-6.471c0-1.518-.278-2.635-.835-3.353-.556-.718-1.417-1.076-2.58-1.076-1.403 0-2.9.582-4.492 1.745v-1.571h-4.813v2.289h2.289v8.438h-2.289v2.277h7.053v-2.277z" fill="#B3B3B3" data-color="1"></path>
        <path d="M153.238 97.614c0 1.311.235 2.238.705 2.778s1.241.811 2.314.811c.487 0 1.126-.116 1.918-.346v-2.314a4.134 4.134 0 0 1-1.361.235c-.371 0-.633-.105-.786-.316-.153-.21-.229-.67-.229-1.38v-6.817h2.376v-2.289H155.8V83.67l-2.561 2.338v1.967h-1.694v2.289h1.694v7.35z" fill="#B3B3B3" data-color="1"></path>
        <path d="M165.501 92.9c-.759 0-1.514.173-2.264.52-.75.347-1.347.84-1.788 1.479-.441.639-.662 1.367-.662 2.184 0 .759.2 1.45.6 2.073s.932 1.12 1.596 1.491 1.396.557 2.196.557c1.518 0 2.895-.606 4.133-1.819v1.596h4.429v-2.277h-2.177v-6.137c0-1.707-.402-2.957-1.207-3.749-.804-.792-2.077-1.188-3.817-1.188-1.295 0-2.412.254-3.353.761-.94.507-1.687 1.276-2.239 2.308l2.449.606c.305-.511.691-.893 1.157-1.144.466-.252 1.045-.377 1.739-.377.981 0 1.686.219 2.115.656.429.437.643 1.163.643 2.178v1.398c-1.096-.745-2.28-1.116-3.55-1.116zm3.551 4.763c-1.097 1.048-2.272 1.571-3.526 1.571-.677 0-1.229-.204-1.658-.612-.429-.408-.643-.922-.643-1.54 0-.643.245-1.177.736-1.602.491-.425 1.075-.637 1.751-.637 1.113 0 2.227.433 3.34 1.299v1.521z" fill="#B3B3B3" data-color="1"></path>
        <path fill="#B3B3B3" d="M182.106 98.703h-1.98v-16.37h-4.862v2.252h2.301v14.118h-2.301v2.276h6.842v-2.276z" data-color="1"></path>
        <path fill="#B3B3B3" d="M81.201 111.751h.787l-1.247 4.382-1.216-4.382h.787v-.832h-3.06v.832h.796l-1.23 4.382-1.243-4.382h.801v-.832h-2.547v.832h.787l1.702 5.904h.934l1.494-5.307 1.504 5.307h.942l1.685-5.904h.769v-.832h-2.445v.832z" data-color="1"></path>
        <path d="M91.647 114.066c-.209-.402-.496-.712-.86-.929s-.791-.325-1.28-.325c-.448 0-.858.105-1.229.316-.371.211-.664.503-.878.878s-.321.795-.321 1.26c0 .469.108.89.325 1.265.217.374.52.666.909.876.389.209.834.314 1.336.314a3 3 0 0 0 1.342-.303c.411-.202.744-.5.997-.896l-.805-.363a1.67 1.67 0 0 1-.659.584c-.262.127-.547.19-.854.19-.419 0-.772-.129-1.061-.387-.289-.258-.461-.61-.517-1.055h3.896c-.018-.547-.132-1.023-.341-1.425zm-3.529.771c.074-.38.24-.686.5-.918s.562-.347.907-.347c.363 0 .683.116.96.347.277.231.458.537.544.918h-2.911z" fill="#B3B3B3" data-color="1"></path>
        <path d="M100.868 114.066c-.209-.402-.496-.712-.86-.929s-.791-.325-1.28-.325c-.448 0-.858.105-1.229.316a2.307 2.307 0 0 0-.878.878 2.494 2.494 0 0 0-.321 1.26c0 .469.108.89.325 1.265.217.374.52.666.909.876.389.209.834.314 1.336.314a3 3 0 0 0 1.342-.303c.411-.202.744-.5.997-.896l-.805-.363a1.67 1.67 0 0 1-.659.584c-.262.127-.547.19-.854.19-.419 0-.772-.129-1.061-.387-.289-.258-.461-.61-.517-1.055h3.896c-.018-.547-.131-1.023-.341-1.425zm-3.529.771c.074-.38.24-.686.5-.918.259-.231.562-.347.907-.347.363 0 .683.116.96.347s.458.537.544.918h-2.911z" fill="#B3B3B3" data-color="1"></path>
        <path fill="#B3B3B3" d="M108.047 113.697h.734l-1.693 1.424v-4.202h-1.747v.805h.831v5.046h-.831v.814h2.534v-.814h-.787v-1.53l2.326 2.344h1.207v-.814h-.814l-1.64-1.632 1.738-1.441h.716v-.761h-2.574v.761z" data-color="1"></path>
        <path fill="#B3B3B3" d="M116.3 110.919h-1.738v.805h.823v5.046h-.823v.814h2.446v-.814h-.708v-5.851z" data-color="1"></path>
        <path fill="#B3B3B3" d="M124.203 113.754h.62l-.978 2.627-1.008-2.627h.553v-.818h-2.326v.818h.778l1.521 3.75-.553 1.367h-.915v.796h1.548l2.295-5.913h.685v-.818h-2.22v.818z" data-color="1"></path>
        <path fill="#B3B3B3" d="M182.267 103.846v2.038H17.733v-2.038h164.534z" data-color="1"></path>
    </g>
</svg>