<svg preserveAspectRatio="xMidYMid meet" data-bbox="38.667 78.281 122.666 41.438" viewBox="38.667 78.281 122.666 41.438" height="200" width="200" xmlns="http://www.w3.org/2000/svg" data-type="color" role="presentation" aria-hidden="true"><defs><style>#comp-jlkmvd5l svg [data-color="1"] {fill: #B0B0B0;}</style></defs>
    <g>
        <path fill="#B3B3B3" d="M75.648 86.595l-7.799 16.806-5.236-11.424h-3.039l-5.236 11.424-7.762-16.806h-7.909l12.668 27.461h5.2l4.54-9.776 4.577 9.776h5.199l12.706-27.461h-7.909z" data-color="1"></path>
        <path d="M95.029 86.595l-12.815 27.461h7.213l1.648-3.588h11.241l4.401 9.251h7.213L98.287 86.595h-3.258zm-1.135 17.794l2.819-6.041 2.783 6.041h-5.602z" fill="#B3B3B3" data-color="1"></path>
        <path fill="#B3B3B3" d="M125.075 102.192l-11.12-23.911h-7.251l16.724 35.775h3.295l12.778-27.498h-7.176l-7.25 15.634z" data-color="1"></path>
        <path fill="#B3B3B3" d="M161.333 92.563v-5.968h-17.062v27.461h17.062v-5.895h-9.849v-5.053h8.714V97.03h-8.714v-4.467h9.849z" data-color="1"></path>
    </g>
</svg>